<svg xmlns="http://www.w3.org/2000/svg" viewBox="0 0 554.14 340">
    <defs>
        <style>
        .a{
            fill:transparent;
        }
        .b{
            fill:#31263E;
            fill-rule:evenodd;
        }
        .c{
            fill:#31263E;
        }
        </style>
    </defs>
    <title>Apache-Ant-logo2</title>
    <path class="a" d="M.12,293.09H472L348.12,3h-2Z" transform="translate(-0.12 -3)"/>
    <path class="b" d="M.12,293.09H472L348.12,3h-2Zm216.27-172a19.11,19.11,0,0,0-2.94.23s-7.11,4-16.07,9.27-25,16.39-27.53,20.1-12.67,14.53-12.67,14.53l-.71.91c-7.92-1.06-16.33-1.36-21.25.33-9.89,3.4-31.22,16.08-34.62,23.81-2.8,6.36-5.81,11.88-6.09,18.8-3.88,8.29-6,22.5,3.3,42.43,0,0,5.57,3.39,14.23,2.46,1.9-.19,4.66-.28,7.72-.6-7.58,9.88-16.86,22.12-20.4,25.65-5.26,5.25-39,34.94-44.53,36.48s-7.42.93-2.78,3.4,12.88.63,15.87-3.71,7-11.43,10.42-14.83,21.33-14.54,22.87-16.7,27.35-28,30.18-33.17a15.39,15.39,0,0,0,4.93-3.63,13.75,13.75,0,0,0,4.16-.93c8.35-3.4,21.65-13.91,28.14-23.18a77.75,77.75,0,0,0,8.86-15.86c3.47-2.72,6.23-4.66,7.22-4.86,3.09-.62,8-2.17,8,3.08s5.25,16.7,9.89,23.51A79,79,0,0,0,213.45,241a2.81,2.81,0,0,0,2.79,3.09c3.09.31,5.87-.62,6.49.93,1.49,3.73,8,.92,11.12-1.85s4.34,1.85,8.67-.93a12.56,12.56,0,0,0,6.18-11.45,6.55,6.55,0,0,0-2.59-5.17l.43-.39a22.06,22.06,0,0,0,7.36-.92,22.68,22.68,0,0,0,.06,6.48c.92,7.73,6.19,12.68,9.27,12.68s5.26,3.4,5.26,3.4-.31,5.88,4,7.11,16.07-4.32,18.85-6.79,8.35,3.7,10.82,9,15.46,27.21,20.1,32.47S333.11,302.55,339,310s2.52,8.17,4.38,8.17.61,1.24,2.16,2.78,9.89,6.49,12.06,8,11.13,4.64,12.36,3.71,1.86-4,1.86-4-1.55.61-7.73-1.55-14.22-7.42-15.15-9-3.71-2.78-3.71-2.78-8.28-9.72-13.23-19.3c0,0-4.13-9.9-8.46-19.48S305,238.86,298.79,237.31s-13.92.3-18.25,4-6.18,2.47-8.34.93.32-5.26-.93-10.51a39,39,0,0,0-2.66-7.53,3.91,3.91,0,0,0,3.28-2.68c1.24-3.4.93-4.95,5.26-4.33a23.65,23.65,0,0,0,2.79.19,6.8,6.8,0,0,0-1,2.63c-.12,3.46,2.64,9.75,6.73,11.28s21.44,9.08,25.08,5.45,19.8-12.47,22.67-14.07,8.17-2.66,10-2.25,5.54,13.85,11.9,25.36,5.31,16.33,9.46,14.71,4.07,3.1,7.89,3,4.52,2.56,6.75,6.84,4.57,9.54,10.07,10.42,27.37,6.57,29.87,5.22,2.63-4.81-3.72-6.18S394.4,278.34,391.1,276s-4.14-14.5-7.63-15.89-8.8-3.18-9.44-4.59c-.55-1.2-13-23.25-17.79-35,6.32,2.69,16.06,6.51,22,8.42,8.66,2.79,23.5,7.42,29.68,7.42,3.92,0,5.47-1.37,6.09-2.37a21.65,21.65,0,0,0,1,2.37,15.48,15.48,0,0,0,3.09,3.72s-.62,1.23,1.23,2.16,14.54,2.78,19.18,7.11,11.13,12.68,11.75,20.4,5.56,16.08,8,16.39,5.26,0,2.78-10.51-6.18-18.86-12.05-23.5-21-12.05-22.88-13-4.32-3.4-5.26-3.4-.62-.92-2.16-6.18c-.27-.93-.54-2-.82-3.06a40.84,40.84,0,0,0,2.36-10.24c.62-6.18-2.16-19.78-4.63-23.19,0,0-.25-2.17-.3-4a1.91,1.91,0,0,0,2.15-.06c1.85-1.55,6.8-8.05,14.53-11.44s15.15-6.5,23.81-7.12,9.89-1.23,9.89-1.23a15.19,15.19,0,0,1,8.67,1.85c4.63,2.47,32.15,16.39,36.17,17.94s10.2,4.33,14.54,7.72,7.72,3.09,7.72,3.09a45.63,45.63,0,0,0,7.73,6.5c4.64,3.09,6.18,4.64,9,5.26s8.35,3.5,1.24-6.71c0,0-7.12-7.21-13.3-10s-5.88-5.57-9.59-5.87a55.58,55.58,0,0,1-16.07-4c-5.57-2.48-21.33-9-28.13-12.68s-11.14-6.49-13-8-4.95-1.34-10.82-.41c0,0-16.69,3.81-22.57,6.59S418.14,180.73,416,182.58c0,0-2.45,0-3.36,1.17-.12-.08-.23-.17-.35-.24-1.54-.93-11.44-10.51-11.44-10.51-4.95-4.33-13.3-13.3-18.55-17.63s-26.44-11-35.24-10.2c-8.25.78-12.13,6.18-14.26,11.43a56,56,0,0,0-5.53-8.33c-5.25-6.19-6.81-8.05-6.81-8.05a22.11,22.11,0,0,0-11.13,3.71c-3.37,2.25-8.1,7.34-11.31,11-2.68,0-4.83.69-6,1.68-4,3.4-26.9,19.48-27.82,23.49-.59,2.51-1.53,4.17-2.75,5.07a8.63,8.63,0,0,0-9.62-1.66l-.84.35c-.57-11.13-2.12-40.34-2.88-43.33-.93-3.71-2.78-6.49-5.88-4.94s-5.87,5.87-5.87,10.51,1.86,7.1,2.48,9c.51,1.56,1,24.49,2.1,33.44-4.08,2.25-7.82,5-8.9,8.3-2.17,6.5-1.86,9-3.72,10.83a6.9,6.9,0,0,1-1,.77c-1.33-1.26-2.88-2.52-4.09-3.76-.65-2.81-.83-6,1.71-7.52,3.09-1.86,3.09-13.92,0-15.16l-3.09-1.23s5.57-20.72,4.33-32.46-2.47-24.13-4.95-26a8.41,8.41,0,0,0-4.79-1.15ZM214,125.86c1.59,0,2.63,1.28,2.21,4.46-.62,4.65-3.71,23.51-4,30.62s.31,21.64.31,21.64-3.87,2.68-3.43,5.7c-1.13-.23-2-.34-2.45-.45-1.24-.3,2.47-12.67-2.17-15.76s-13.29.31-16.38,1.85c-2.5,1.26-7.24,2.1-8.94,2.38a8.86,8.86,0,0,0-4.36-5.78c-2.27-1.13-7.63-2.58-13.86-3.66l9.84-10.56s7.42-.62,12.68-4.33,25.36-23.81,28.13-25.35a5.15,5.15,0,0,1,2.44-.76Zm104.82,20.57c1.17,0,2.08.86,2.51,2.45.57,2,2.24,9.56,3.48,15.24a28.29,28.29,0,0,0-6.45,1.72,27.66,27.66,0,0,0-8.49-7.68,46,46,0,0,1,4.35-8.35c1.64-2.3,3.28-3.38,4.6-3.38Zm2.94,40.41a14.83,14.83,0,0,0,2.93.49c.25,5.81,2.95,10.4,5,14.11,1.42,2.58,4.82,5.59,8.49,8.33a49.24,49.24,0,0,0-5.75,1.23s-25.15,5.08-29.8,7.55-8.53,5.74-11.49,4.79,4.93-3.69,11.75-8.85a13,13,0,0,0,5.06-7.85c.46-.58.91-1.17,1.33-1.8,4.56-6.84,9.81-12.23,12.49-18Zm48.8,5.74a5.49,5.49,0,0,1,.58,0c3.09.39,3.09,1.15,6.19,5.8s3.85,10.81,1.54,13.14-5,3.09-11.6-5.8c-6.25-8.48-.71-13.19,3.29-13.17ZM178,192.9c1.53.95,4.63,2.86,7.42,4.3a45.73,45.73,0,0,0-6.55,4.47,6.19,6.19,0,0,0-.34-3,14,14,0,0,1-.53-5.76Zm28.38,15.22c2.44.5,4.71.52,6.47,2.28,2.07,2.08,3.81,7.25,5.58,9.74-1.29,4.09-1.66,6,2.15,7.28a11.85,11.85,0,0,0,8.66-.63,13.57,13.57,0,0,0,1.49,1.48c-3.85,2.24-7.48,4.76-8.6,6.26-1.86,2.47-4,1.23-4,1.23S210.67,223.4,207.58,212C207.19,210.54,206.78,209.27,206.36,208.12Z" transform="translate(-0.12 -3)"/>
    <path class="c" d="M23,340.5,2,331.78v-5.51l21-8.7v6.56L10.24,329,23,334Zm34.6-2.42H48.13l-1.35,4.45H38.24l10.14-27.07h9.16l10.15,27.07H58.94Zm-1.77-5.86-2.94-9.74-3,9.74Zm27.76-16.76h13.9q4.55,0,6.8,2.16a8.1,8.1,0,0,1,2.27,6.15,8.36,8.36,0,0,1-2.47,6.41q-2.46,2.31-7.53,2.31H92v10H83.57ZM92,327H94a5.32,5.32,0,0,0,3.41-.84,2.73,2.73,0,0,0,1-2.16,3,3,0,0,0-.85-2.16,4.45,4.45,0,0,0-3.21-.89H92Zm45.57,11.06h-9.45l-1.35,4.45h-8.54l10.14-27.07h9.16l10.15,27.07h-8.76Zm-1.77-5.86-2.94-9.74-3,9.74Zm45.12-.74,7.34,2.2a13.65,13.65,0,0,1-2.32,5.15,10.1,10.1,0,0,1-4,3.12,14.75,14.75,0,0,1-6,1.05,17.5,17.5,0,0,1-7.21-1.28,11.5,11.5,0,0,1-4.83-4.52,15.33,15.33,0,0,1-2-8.27q0-6.72,3.57-10.33T175.57,315q5.1,0,8,2.07a12.18,12.18,0,0,1,4.35,6.36l-7.38,1.65a6.46,6.46,0,0,0-.81-1.82,4.81,4.81,0,0,0-1.72-1.49,5.24,5.24,0,0,0-6.61,1.77,9.77,9.77,0,0,0-1.14,5.34q0,4.5,1.37,6.17a5.37,5.37,0,0,0,7.44.33,8.24,8.24,0,0,0,1.78-3.89Zm24.66-16h8.36V325H223v-9.49h8.4v27.07H223V331.59H213.9v10.94h-8.36Zm44.64,0h22.46v5.78H258.58v4.3h13.05v5.51H258.58v5.35H273v6.13H250.18Zm83,22.62h-9.45l-1.35,4.45h-8.54L324,315.46h9.16l10.15,27.07h-8.75Zm-1.77-5.86-2.94-9.74-3,9.74Zm27.83-16.76h7.8l10.21,15v-15h7.89v27.07h-7.89l-10.15-14.91v14.91h-7.86Zm42.81,0h25.39v6.68h-8.52v20.39h-8.36V322.14h-8.51ZM443.68,334,456.43,329l-12.75-4.91v-6.56l21,8.7v5.51l-21,8.72Z" transform="translate(-0.12 -3)"/>
</svg>