<?xml version="1.0" encoding="utf-8"?>
<!-- Generator: Adobe Illustrator 23.0.1, SVG Export Plug-In . SVG Version: 6.00 Build 0)  -->
<svg version="1.1" id="Livello_1" xmlns="http://www.w3.org/2000/svg" xmlns:xlink="http://www.w3.org/1999/xlink" x="0px" y="0px"
	 viewBox="0 0 400 166.1" style="enable-background:new 0 0 400 166.1;" xml:space="preserve">
<style type="text/css">
	.st0{clip-path:url(#SVGID_2_);}
	.st1{fill:#702282;}
	.st2{fill:#3157A4;}
	.st3{fill:#0C8136;}
	.st4{fill:#FEEB1A;}
	.st5{fill:#F28A1A;}
	.st6{fill:#E31013;}
</style>
<g>
	<g>
		<defs>
			<path id="SVGID_1_" d="M346.1,162.6H53c-26.7,0-48.4-21.7-48.4-48.4V51C4.6,24.3,26.2,2.6,53,2.6h293.2
				c26.7,0,48.4,21.7,48.4,48.4v63.2C394.6,140.9,372.9,162.6,346.1,162.6z"/>
		</defs>
		<clipPath id="SVGID_2_">
			<use xlink:href="#SVGID_1_"  style="overflow:visible;"/>
		</clipPath>
		<g class="st0">
			<polygon class="st1" points="-187.8,186.3 234.6,-173.4 544.9,13.5 122.6,373.1 			"/>
			<polygon class="st2" points="-187.8,186.3 234.6,-173.4 493.2,-17.7 70.8,342 			"/>
			<polygon class="st3" points="-187.8,186.3 234.6,-173.4 441.5,-48.8 19.1,310.9 			"/>
			<polygon class="st4" points="-187.8,186.3 234.6,-173.4 389.8,-80 -32.6,279.7 			"/>
			<polygon class="st5" points="-187.8,186.3 234.6,-173.4 338.1,-111.1 -84.3,248.6 			"/>
			<polygon class="st6" points="-187.8,186.3 234.6,-173.4 286.4,-142.2 -136,217.4 			"/>
		</g>
	</g>
	<g>
		<path d="M53.8,123.9v-12.1h-8.2V99.7H62v12.1h24.7V87.6h-33V75.5h-8.2V51.4h8.2V39.3H95v12.1h8.2v12.1H86.8V51.4H62v24.2h33v12.1
			h8.2v24.2H95v12.1H53.8z"/>
		<path d="M105.1,123.9V39.3h49.5v12.1h8.2v24.2h-8.2v12.1h8.2v24.2h-8.2v12.1H105.1z M121.6,75.5h24.7V51.4h-24.7V75.5z
			 M121.6,111.8h24.7V87.6h-24.7V111.8z"/>
		<path d="M165.5,123.9V99.7H182v24.2H165.5z"/>
		<path d="M193.2,123.9v-12.1H185V75.5h8.2V63.5h33V39.3h16.5v84.6H193.2z M201.5,111.8h24.7V75.5h-24.7V111.8z"/>
		<path d="M253.3,123.9v-12.1h-8.2V75.5h8.2V63.5h41.2v12.1h8.2v24.2h-41.2v12.1h33v12.1H253.3z M261.6,87.6h24.7V75.5h-24.7V87.6z"
			/>
		<path d="M321.8,123.9v-12.1h-8.2V99.7h-8.2V63.5h16.5v36.2h16.5V63.5h16.5v36.2h-8.2v12.1h-8.2v12.1H321.8z"/>
	</g>
</g>
</svg>
